RobotoAvar2-XTRA741-opsz144-wdth151-wght100.ufo
<glyph name="parenright" format="2">
  <advance width="1248"/>
  <unicode hex="0029"/>
  <outline>
    <contour>
      <point x="36" y="-436" type="qcurve"/>
      <point x="38" y="-256" type="line"/>
      <point x="416" y="-180"/>
      <point x="929" y="193"/>
      <point x="929" y="508" type="qcurve" smooth="yes"/>
      <point x="929" y="532" type="line" smooth="yes"/>
      <point x="929" y="861"/>
      <point x="426" y="1220"/>
      <point x="38" y="1296" type="qcurve"/>
      <point x="36" y="1476" type="line"/>
      <point x="511" y="1376"/>
      <point x="1124" y="917"/>
      <point x="1124" y="525" type="qcurve" smooth="yes"/>
      <point x="1124" y="515" type="line" smooth="yes"/>
      <point x="1124" y="140"/>
      <point x="499" y="-333"/>
    </contour>
  </outline>
</glyph>
<glyph name="semicolon" format="2">
  <advance width="734"/>
  <unicode hex="003B"/>
  <outline>
    <contour>
      <point x="127" y="-218" type="line"/>
      <point x="239" y="-161"/>
      <point x="354" y="-37"/>
      <point x="354" y="70" type="qcurve" smooth="yes"/>
      <point x="354" y="220" type="line"/>
      <point x="534" y="220" type="line"/>
      <point x="534" y="70" type="line" smooth="yes"/>
      <point x="534" y="-63"/>
      <point x="350" y="-252"/>
      <point x="227" y="-291" type="qcurve"/>
    </contour>
    <contour>
      <point x="310" y="949" type="qcurve" smooth="yes"/>
      <point x="310" y="998"/>
      <point x="374" y="1068"/>
      <point x="434" y="1068" type="qcurve" smooth="yes"/>
      <point x="494" y="1068"/>
      <point x="558" y="998"/>
      <point x="558" y="949" type="qcurve" smooth="yes"/>
      <point x="558" y="900"/>
      <point x="494" y="830"/>
      <point x="434" y="830" type="qcurve" smooth="yes"/>
      <point x="374" y="830"/>
      <point x="310" y="900"/>
    </contour>
  </outline>
</glyph>
<glyph name="G" format="2">
  <advance width="2247"/>
  <unicode hex="0047"/>
  <anchor x="1167" y="0.0" name="bottom"/>
  <anchor x="1164" y="1456.0" name="top"/>
  <outline>
    <contour>
      <point x="115" y="682" type="qcurve" smooth="yes"/>
      <point x="115" y="774" type="line" smooth="yes"/>
      <point x="115" y="1110"/>
      <point x="655" y="1486"/>
      <point x="1163" y="1486" type="qcurve" smooth="yes"/>
      <point x="1712" y="1486"/>
      <point x="2117" y="1221"/>
      <point x="2117" y="1041" type="qcurve" smooth="yes"/>
      <point x="2117" y="1030" type="line"/>
      <point x="1926" y="1030" type="line"/>
      <point x="1926" y="1040" type="line" smooth="yes"/>
      <point x="1926" y="1140"/>
      <point x="1634" y="1322"/>
      <point x="1164" y="1322" type="qcurve" smooth="yes"/>
      <point x="735" y="1322"/>
      <point x="309" y="1030"/>
      <point x="309" y="774" type="qcurve" smooth="yes"/>
      <point x="309" y="682" type="line" smooth="yes"/>
      <point x="309" y="426"/>
      <point x="760" y="134"/>
      <point x="1189" y="134" type="qcurve" smooth="yes"/>
      <point x="1466" y="134"/>
      <point x="1835" y="180"/>
      <point x="1932" y="230" type="qcurve"/>
      <point x="1932" y="570" type="line"/>
      <point x="1002" y="570" type="line"/>
      <point x="1002" y="728" type="line"/>
      <point x="2118" y="728" type="line"/>
      <point x="2118" y="160" type="line"/>
      <point x="2032" y="90"/>
      <point x="1553" y="-30"/>
      <point x="1184" y="-30" type="qcurve" smooth="yes"/>
      <point x="690" y="-30"/>
      <point x="115" y="346"/>
    </contour>
  </outline>
</glyph>
<glyph name="a" format="2">
  <advance width="1658"/>
  <unicode hex="0061"/>
  <anchor x="860" y="0.0" name="bottom"/>
  <anchor x="1521" y="0.0" name="ogonek"/>
  <anchor x="870" y="1052.0" name="top"/>
  <outline>
    <contour>
      <point x="749" y="-20" type="qcurve" smooth="yes"/>
      <point x="402" y="-20"/>
      <point x="90" y="150"/>
      <point x="90" y="310" type="qcurve" smooth="yes"/>
      <point x="90" y="470"/>
      <point x="458" y="648"/>
      <point x="864" y="648" type="qcurve" smooth="yes"/>
      <point x="1423" y="648" type="line"/>
      <point x="1423" y="516" type="line"/>
      <point x="868" y="516" type="line" smooth="yes"/>
      <point x="533" y="516"/>
      <point x="277" y="410"/>
      <point x="277" y="320" type="qcurve" smooth="yes"/>
      <point x="277" y="230"/>
      <point x="479" y="128"/>
      <point x="772" y="128" type="qcurve" smooth="yes"/>
      <point x="1004" y="128"/>
      <point x="1330" y="280"/>
      <point x="1330" y="365" type="qcurve"/>
      <point x="1330" y="720" type="line" smooth="yes"/>
      <point x="1330" y="815"/>
      <point x="1110" y="934"/>
      <point x="868" y="934" type="qcurve" smooth="yes"/>
      <point x="553" y="934"/>
      <point x="361" y="835"/>
      <point x="361" y="770" type="qcurve" smooth="yes"/>
      <point x="361" y="765" type="line"/>
      <point x="176" y="765" type="line"/>
      <point x="176" y="770" type="line" smooth="yes"/>
      <point x="176" y="895"/>
      <point x="489" y="1082"/>
      <point x="874" y="1082" type="qcurve" smooth="yes"/>
      <point x="1182" y="1082"/>
      <point x="1516" y="900"/>
      <point x="1516" y="720" type="qcurve" smooth="yes"/>
      <point x="1516" y="240" type="line" smooth="yes"/>
      <point x="1516" y="175"/>
      <point x="1536" y="60"/>
      <point x="1554" y="16" type="qcurve"/>
      <point x="1554" y="0" type="line"/>
      <point x="1374" y="0" type="line"/>
      <point x="1360" y="25"/>
      <point x="1338" y="105"/>
      <point x="1334" y="155" type="qcurve"/>
      <point x="1277" y="80"/>
      <point x="983" y="-20"/>
    </contour>
  </outline>
</glyph>
<glyph name="e" format="2">
  <advance width="1691"/>
  <unicode hex="0065"/>
  <anchor x="913" y="0.0" name="bottom"/>
  <anchor x="1213" y="0.0" name="ogonek"/>
  <anchor x="882" y="1052.0" name="top"/>
  <outline>
    <contour>
      <point x="85" y="510" type="qcurve" smooth="yes"/>
      <point x="85" y="542" type="line" smooth="yes"/>
      <point x="85" y="792"/>
      <point x="525" y="1082"/>
      <point x="884" y="1082" type="qcurve" smooth="yes"/>
      <point x="1226" y="1082"/>
      <point x="1611" y="800"/>
      <point x="1611" y="560" type="qcurve" smooth="yes"/>
      <point x="1611" y="484" type="line"/>
      <point x="180" y="484" type="line"/>
      <point x="180" y="632" type="line"/>
      <point x="1424" y="632" type="line"/>
      <point x="1424" y="656" type="line" smooth="yes"/>
      <point x="1424" y="789"/>
      <point x="1130" y="930"/>
      <point x="896" y="930" type="qcurve" smooth="yes"/>
      <point x="592" y="930"/>
      <point x="275" y="705"/>
      <point x="275" y="542" type="qcurve" smooth="yes"/>
      <point x="275" y="510" type="line" smooth="yes"/>
      <point x="275" y="335"/>
      <point x="603" y="122"/>
      <point x="920" y="122" type="qcurve" smooth="yes"/>
      <point x="1124" y="122"/>
      <point x="1390" y="210"/>
      <point x="1435" y="270" type="qcurve"/>
      <point x="1557" y="175" type="line"/>
      <point x="1506" y="100"/>
      <point x="1174" y="-30"/>
      <point x="920" y="-30" type="qcurve" smooth="yes"/>
      <point x="520" y="-30"/>
      <point x="85" y="262"/>
    </contour>
  </outline>
</glyph>
<glyph name="k" format="2">
  <advance width="1602"/>
  <unicode hex="006B"/>
  <anchor x="687" y="0.0" name="bottom"/>
  <anchor x="687" y="1456" name="top"/>
  <outline>
    <contour>
      <point x="148" y="0" type="line"/>
      <point x="148" y="1456" type="line"/>
      <point x="334" y="1456" type="line"/>
      <point x="334" y="0" type="line"/>
    </contour>
    <contour>
      <point x="1398" y="0" type="line"/>
      <point x="655" y="600" type="line"/>
      <point x="772" y="725" type="line"/>
      <point x="1618" y="0" type="line"/>
    </contour>
    <contour>
      <point x="241" y="258" type="line"/>
      <point x="241" y="470" type="line"/>
      <point x="1282" y="1052" type="line"/>
      <point x="1502" y="1052" type="line"/>
    </contour>
  </outline>
</glyph>
<glyph name="o" format="2">
  <advance width="1837"/>
  <unicode hex="006F"/>
  <anchor x="918" y="0.0" name="bottom"/>
  <anchor x="918" y="526.0" name="center"/>
  <anchor x="1239" y="0.0" name="ogonek"/>
  <anchor x="918" y="1052.0" name="top"/>
  <anchor x="1220" y="1052.0" name="topright"/>
  <anchor x="179" y="536.0" name="yu_dash"/>
  <outline>
    <contour>
      <point x="85" y="510" type="qcurve" smooth="yes"/>
      <point x="85" y="542" type="line" smooth="yes"/>
      <point x="85" y="780"/>
      <point x="534" y="1082"/>
      <point x="919" y="1082" type="qcurve" smooth="yes"/>
      <point x="1303" y="1082"/>
      <point x="1752" y="780"/>
      <point x="1752" y="542" type="qcurve" smooth="yes"/>
      <point x="1752" y="510" type="line" smooth="yes"/>
      <point x="1752" y="272"/>
      <point x="1303" y="-30"/>
      <point x="919" y="-30" type="qcurve" smooth="yes"/>
      <point x="534" y="-30"/>
      <point x="85" y="272"/>
    </contour>
    <contour>
      <point x="275" y="542" type="qcurve" smooth="yes"/>
      <point x="275" y="510" type="line" smooth="yes"/>
      <point x="275" y="346"/>
      <point x="609" y="122"/>
      <point x="919" y="122" type="qcurve" smooth="yes"/>
      <point x="1229" y="122"/>
      <point x="1562" y="346"/>
      <point x="1562" y="510" type="qcurve" smooth="yes"/>
      <point x="1562" y="542" type="line" smooth="yes"/>
      <point x="1562" y="705"/>
      <point x="1230" y="930"/>
      <point x="919" y="930" type="qcurve" smooth="yes"/>
      <point x="608" y="930"/>
      <point x="275" y="705"/>
    </contour>
  </outline>
</glyph>
<glyph name="braceright" format="2">
  <advance width="1467"/>
  <unicode hex="007D"/>
  <outline>
    <contour>
      <point x="30" y="-312" type="qcurve"/>
      <point x="30" y="-166" type="line"/>
      <point x="487" y="-166"/>
      <point x="750" y="4"/>
      <point x="722" y="123" type="qcurve" smooth="yes"/>
      <point x="673" y="329" type="line" smooth="yes"/>
      <point x="652" y="416"/>
      <point x="769" y="548"/>
      <point x="1034" y="574" type="qcurve"/>
      <point x="769" y="600"/>
      <point x="652" y="732"/>
      <point x="673" y="819" type="qcurve" smooth="yes"/>
      <point x="722" y="1025" type="line" smooth="yes"/>
      <point x="750" y="1144"/>
      <point x="487" y="1314"/>
      <point x="30" y="1314" type="qcurve"/>
      <point x="30" y="1460" type="line"/>
      <point x="559" y="1460"/>
      <point x="943" y="1179"/>
      <point x="905" y="1018" type="qcurve" smooth="yes"/>
      <point x="858" y="817" type="line" smooth="yes"/>
      <point x="833" y="711"/>
      <point x="1026" y="640"/>
      <point x="1403" y="640" type="qcurve"/>
      <point x="1403" y="508" type="line"/>
      <point x="1026" y="508"/>
      <point x="833" y="439"/>
      <point x="858" y="331" type="qcurve" smooth="yes"/>
      <point x="905" y="130" type="line" smooth="yes"/>
      <point x="943" y="-31"/>
      <point x="559" y="-312"/>
    </contour>
  </outline>
</glyph>
<glyph name="asciitilde" format="2">
  <advance width="1304"/>
  <unicode hex="007E"/>
  <outline>
    <contour>
      <point x="45" y="532" type="qcurve"/>
      <point x="45" y="728" type="line"/>
      <point x="106" y="779"/>
      <point x="278" y="841"/>
      <point x="362" y="842" type="qcurve" smooth="yes"/>
      <point x="465" y="843"/>
      <point x="588" y="800"/>
      <point x="669" y="769" type="qcurve" smooth="yes"/>
      <point x="746" y="739"/>
      <point x="854" y="700"/>
      <point x="950" y="700" type="qcurve" smooth="yes"/>
      <point x="1034" y="700"/>
      <point x="1197" y="768"/>
      <point x="1258" y="828" type="qcurve"/>
      <point x="1258" y="631" type="line"/>
      <point x="1197" y="580"/>
      <point x="1036" y="517"/>
      <point x="951" y="517" type="qcurve" smooth="yes"/>
      <point x="855" y="517"/>
      <point x="741" y="556"/>
      <point x="665" y="586" type="qcurve" smooth="yes"/>
      <point x="583" y="617"/>
      <point x="465" y="659"/>
      <point x="362" y="659" type="qcurve" smooth="yes"/>
      <point x="278" y="659"/>
      <point x="106" y="592"/>
    </contour>
  </outline>
</glyph>
<glyph name="cent" format="2">
  <advance width="1974"/>
  <unicode hex="00A2"/>
  <outline>
    <contour>
      <point x="1044" y="282" type="qcurve" smooth="yes"/>
      <point x="1374" y="282"/>
      <point x="1738" y="391"/>
      <point x="1754" y="492" type="qcurve"/>
      <point x="1928" y="492" type="line"/>
      <point x="1912" y="318"/>
      <point x="1455" y="130"/>
      <point x="1037" y="130" type="qcurve" smooth="yes"/>
      <point x="566" y="130"/>
      <point x="65" y="410"/>
      <point x="65" y="670" type="qcurve" smooth="yes"/>
      <point x="65" y="712" type="line" smooth="yes"/>
      <point x="65" y="973"/>
      <point x="566" y="1252"/>
      <point x="1037" y="1252" type="qcurve" smooth="yes"/>
      <point x="1454" y="1252"/>
      <point x="1915" y="1049"/>
      <point x="1928" y="860" type="qcurve"/>
      <point x="1754" y="860" type="line"/>
      <point x="1738" y="976"/>
      <point x="1374" y="1100"/>
      <point x="1044" y="1100" type="qcurve" smooth="yes"/>
      <point x="658" y="1100"/>
      <point x="251" y="899"/>
      <point x="251" y="712" type="qcurve" smooth="yes"/>
      <point x="251" y="670" type="line" smooth="yes"/>
      <point x="251" y="483"/>
      <point x="658" y="282"/>
    </contour>
    <contour>
      <point x="944" y="0" type="line"/>
      <point x="944" y="197" type="line"/>
      <point x="949" y="211" type="line"/>
      <point x="949" y="708" type="line"/>
      <point x="1089" y="708" type="line"/>
      <point x="1089" y="210" type="line"/>
      <point x="1094" y="200" type="line"/>
      <point x="1094" y="0" type="line"/>
    </contour>
    <contour>
      <point x="949" y="708" type="line"/>
      <point x="949" y="1182" type="line"/>
      <point x="944" y="1192" type="line"/>
      <point x="944" y="1402" type="line"/>
      <point x="1094" y="1402" type="line"/>
      <point x="1094" y="1192" type="line"/>
      <point x="1089" y="1179" type="line"/>
      <point x="1089" y="708" type="line"/>
    </contour>
  </outline>
</glyph>
<glyph name="sterling" format="2">
  <advance width="2018"/>
  <unicode hex="00A3"/>
  <outline>
    <contour>
      <point x="2022" y="0" type="line"/>
      <point x="36" y="0" type="line"/>
      <point x="36" y="160" type="line"/>
      <point x="162" y="160" type="line" smooth="yes"/>
      <point x="314" y="160"/>
      <point x="470" y="321"/>
      <point x="441" y="467" type="qcurve" smooth="yes"/>
      <point x="339" y="977" type="line" smooth="yes"/>
      <point x="297" y="1189"/>
      <point x="711" y="1476"/>
      <point x="1092" y="1476" type="qcurve" smooth="yes"/>
      <point x="1492" y="1476"/>
      <point x="1908" y="1270"/>
      <point x="1908" y="1103" type="qcurve" smooth="yes"/>
      <point x="1908" y="1087" type="line"/>
      <point x="1716" y="1087" type="line"/>
      <point x="1716" y="1103" type="line" smooth="yes"/>
      <point x="1716" y="1205"/>
      <point x="1396" y="1309"/>
      <point x="1094" y="1309" type="qcurve" smooth="yes"/>
      <point x="817" y="1309"/>
      <point x="491" y="1156"/>
      <point x="528" y="978" type="qcurve" smooth="yes"/>
      <point x="625" y="508" type="line" smooth="yes"/>
      <point x="653" y="373"/>
      <point x="545" y="211"/>
      <point x="422" y="166" type="qcurve"/>
      <point x="2022" y="166" type="line"/>
    </contour>
    <contour>
      <point x="1799" y="625" type="line"/>
      <point x="52" y="625" type="line"/>
      <point x="52" y="780" type="line"/>
      <point x="1799" y="780" type="line"/>
    </contour>
  </outline>
</glyph>
<glyph name="section" format="2">
  <advance width="1766"/>
  <unicode hex="00A7"/>
  <guideline x="0" y="1658" angle="0" identifier="QzZ5gIiCyn"/>
  <outline>
    <contour>
      <point x="981" y="130" type="qcurve"/>
      <point x="981" y="252" type="line"/>
      <point x="1264" y="252"/>
      <point x="1464" y="376"/>
      <point x="1464" y="462" type="qcurve" smooth="yes"/>
      <point x="1464" y="556"/>
      <point x="1167" y="657"/>
      <point x="861" y="737" type="qcurve" smooth="yes"/>
      <point x="589" y="808"/>
      <point x="250" y="949"/>
      <point x="250" y="1129" type="qcurve" smooth="yes"/>
      <point x="250" y="1305"/>
      <point x="557" y="1490"/>
      <point x="876" y="1491" type="qcurve" smooth="yes"/>
      <point x="1196" y="1492"/>
      <point x="1551" y="1294"/>
      <point x="1549" y="1100" type="qcurve"/>
      <point x="1384" y="1100" type="line"/>
      <point x="1386" y="1200"/>
      <point x="1128" y="1337"/>
      <point x="876" y="1337" type="qcurve" smooth="yes"/>
      <point x="612" y="1337"/>
      <point x="415" y="1239"/>
      <point x="415" y="1140" type="qcurve" smooth="yes"/>
      <point x="415" y="1049"/>
      <point x="675" y="964"/>
      <point x="939" y="897" type="qcurve" smooth="yes"/>
      <point x="1217" y="826"/>
      <point x="1645" y="652"/>
      <point x="1645" y="478" type="qcurve" smooth="yes"/>
      <point x="1645" y="315"/>
      <point x="1335" y="130"/>
    </contour>
    <contour>
      <point x="797" y="896" type="qcurve"/>
      <point x="797" y="756" type="line"/>
      <point x="446" y="754"/>
      <point x="301" y="649"/>
      <point x="301" y="567" type="qcurve" smooth="yes"/>
      <point x="301" y="486"/>
      <point x="637" y="386"/>
      <point x="890" y="317" type="qcurve" smooth="yes"/>
      <point x="1185" y="236"/>
      <point x="1558" y="67"/>
      <point x="1558" y="-113" type="qcurve" smooth="yes"/>
      <point x="1558" y="-298"/>
      <point x="1205" y="-509"/>
      <point x="893" y="-509" type="qcurve" smooth="yes"/>
      <point x="563" y="-509"/>
      <point x="135" y="-303"/>
      <point x="135" y="-70" type="qcurve"/>
      <point x="300" y="-70" type="line"/>
      <point x="300" y="-230"/>
      <point x="643" y="-355"/>
      <point x="886" y="-355" type="qcurve" smooth="yes"/>
      <point x="1129" y="-355"/>
      <point x="1394" y="-244"/>
      <point x="1394" y="-136" type="qcurve" smooth="yes"/>
      <point x="1394" y="-31"/>
      <point x="1107" y="81"/>
      <point x="795" y="161" type="qcurve" smooth="yes"/>
      <point x="558" y="222"/>
      <point x="119" y="412"/>
      <point x="119" y="577" type="qcurve" smooth="yes"/>
      <point x="119" y="727"/>
      <point x="410" y="896"/>
    </contour>
  </outline>
</glyph>
<glyph name="guillemotleft" format="2">
  <advance width="1902"/>
  <unicode hex="00AB"/>
  <guideline x="0" y="901" angle="0" identifier="ZftBQarVKw"/>
  <guideline x="0" y="555" angle="0" identifier="MVJpdoVRVd"/>
  <outline>
    <contour>
      <point x="108" y="522" type="line"/>
      <point x="108" y="581" type="line"/>
      <point x="1003" y="949" type="line"/>
      <point x="1235" y="949" type="line"/>
      <point x="377" y="551" type="line"/>
      <point x="1235" y="153" type="line"/>
      <point x="1003" y="153" type="line"/>
    </contour>
    <contour>
      <point x="688" y="522" type="line"/>
      <point x="688" y="581" type="line"/>
      <point x="1583" y="949" type="line"/>
      <point x="1815" y="949" type="line"/>
      <point x="957" y="551" type="line"/>
      <point x="1815" y="153" type="line"/>
      <point x="1583" y="153" type="line"/>
    </contour>
  </outline>
</glyph>
<glyph name="guillemotright" format="2">
  <advance width="1902"/>
  <unicode hex="00BB"/>
  <guideline x="0" y="98" angle="0" identifier="MTEldNnfdj"/>
  <guideline x="0" y="443" angle="0" identifier="G9bQni2n1K"/>
  <guideline x="0" y="901" angle="0" identifier="lVPlFPTldB"/>
  <guideline x="0" y="555" angle="0" identifier="1eyE0jPiPa"/>
  <outline>
    <contour>
      <point x="87" y="153" type="line"/>
      <point x="945" y="551" type="line"/>
      <point x="87" y="949" type="line"/>
      <point x="319" y="949" type="line"/>
      <point x="1214" y="581" type="line"/>
      <point x="1214" y="522" type="line"/>
      <point x="319" y="153" type="line"/>
    </contour>
    <contour>
      <point x="667" y="153" type="line"/>
      <point x="1525" y="551" type="line"/>
      <point x="667" y="949" type="line"/>
      <point x="899" y="949" type="line"/>
      <point x="1794" y="581" type="line"/>
      <point x="1794" y="522" type="line"/>
      <point x="899" y="153" type="line"/>
    </contour>
  </outline>
</glyph>
<glyph name="hungarumlautcomb" format="2">
  <unicode hex="030B"/>
  <anchor x="0" y="1052" name="_top"/>
  <anchor x="0" y="1581" name="top"/>
  <outline>
    <contour>
      <point x="-341" y="1308" type="line"/>
      <point x="224" y="1581" type="line"/>
      <point x="361" y="1473" type="line"/>
      <point x="-238" y="1214" type="line"/>
    </contour>
    <contour>
      <point x="179" y="1308" type="line"/>
      <point x="744" y="1581" type="line"/>
      <point x="881" y="1473" type="line"/>
      <point x="282" y="1214" type="line"/>
    </contour>
  </outline>
</glyph>
<glyph name="breveinvertedcomb" format="2">
  <unicode hex="030F"/>
  <anchor x="0" y="1052" name="_top"/>
  <anchor x="0" y="1540" name="top"/>
  <outline>
    <contour>
      <point x="-472" y="1219" type="qcurve"/>
      <point x="-572" y="1271" type="line"/>
      <point x="-493" y="1385"/>
      <point x="-186" y="1539"/>
      <point x="0" y="1539" type="qcurve"/>
      <point x="186" y="1539"/>
      <point x="493" y="1385"/>
      <point x="572" y="1271" type="qcurve"/>
      <point x="472" y="1219" type="line"/>
      <point x="412" y="1276"/>
      <point x="158" y="1375"/>
      <point x="0" y="1375" type="qcurve"/>
      <point x="-158" y="1375"/>
      <point x="-412" y="1276"/>
    </contour>
  </outline>
</glyph>
<glyph name="dieresisbelowcomb" format="2">
  <unicode hex="0324"/>
  <anchor x="0" y="0" name="_bottom"/>
  <anchor x="0" y="-421" name="bottom"/>
  <outline>
    <contour>
      <point x="-446" y="-308" type="qcurve" smooth="yes"/>
      <point x="-446" y="-253"/>
      <point x="-386" y="-194"/>
      <point x="-330" y="-194" type="qcurve" smooth="yes"/>
      <point x="-277" y="-194"/>
      <point x="-214" y="-257"/>
      <point x="-214" y="-308" type="qcurve" smooth="yes"/>
      <point x="-214" y="-362"/>
      <point x="-273" y="-421"/>
      <point x="-330" y="-421" type="qcurve" smooth="yes"/>
      <point x="-383" y="-421"/>
      <point x="-446" y="-359"/>
    </contour>
    <contour>
      <point x="214" y="-308" type="qcurve" smooth="yes"/>
      <point x="214" y="-253"/>
      <point x="274" y="-194"/>
      <point x="330" y="-194" type="qcurve" smooth="yes"/>
      <point x="383" y="-194"/>
      <point x="446" y="-257"/>
      <point x="446" y="-308" type="qcurve" smooth="yes"/>
      <point x="446" y="-362"/>
      <point x="387" y="-421"/>
      <point x="330" y="-421" type="qcurve" smooth="yes"/>
      <point x="277" y="-421"/>
      <point x="214" y="-359"/>
    </contour>
  </outline>
</glyph>
<glyph name="Delta" format="2">
  <advance width="2054"/>
  <unicode hex="0394"/>
  <outline>
    <contour>
      <point x="29" y="0" type="line"/>
      <point x="29" y="107" type="line"/>
      <point x="941" y="1466" type="line"/>
      <point x="1113" y="1466" type="line"/>
      <point x="2026" y="107" type="line"/>
      <point x="2026" y="0" type="line"/>
    </contour>
    <contour>
      <point x="240" y="158" type="line"/>
      <point x="1807" y="158" type="line"/>
      <point x="1094" y="1100" type="line" smooth="yes"/>
      <point x="1069" y="1133"/>
      <point x="1045" y="1195"/>
      <point x="1030" y="1228" type="qcurve"/>
      <point x="1020" y="1228" type="line"/>
      <point x="1008" y="1195"/>
      <point x="963" y="1110"/>
      <point x="955" y="1100" type="qcurve" smooth="yes"/>
    </contour>
  </outline>
</glyph>
<glyph name="Lambda" format="2">
  <advance width="2000"/>
  <unicode hex="039B"/>
  <outline>
    <contour>
      <point x="0" y="0" type="line"/>
      <point x="914" y="1466" type="line"/>
      <point x="1086" y="1466" type="line"/>
      <point x="2000" y="0" type="line"/>
      <point x="1800" y="0" type="line"/>
      <point x="1070" y="1100" type="line" smooth="yes"/>
      <point x="1055" y="1122"/>
      <point x="1017" y="1195"/>
      <point x="1003" y="1228" type="qcurve"/>
      <point x="993" y="1228" type="line"/>
      <point x="979" y="1195"/>
      <point x="940" y="1121"/>
      <point x="926" y="1100" type="qcurve" smooth="yes"/>
      <point x="192" y="0" type="line"/>
    </contour>
  </outline>
</glyph>
<glyph name="alpha" format="2">
  <advance width="1776"/>
  <unicode hex="03B1"/>
  <anchor x="820" y="1052" name="top"/>
  <outline>
    <contour>
      <point x="795" y="-20" type="qcurve" smooth="yes"/>
      <point x="452" y="-20"/>
      <point x="85" y="280"/>
      <point x="85" y="510" type="qcurve" smooth="yes"/>
      <point x="85" y="542" type="line" smooth="yes"/>
      <point x="85" y="772"/>
      <point x="475" y="1072"/>
      <point x="795" y="1072" type="qcurve" smooth="yes"/>
      <point x="1122" y="1072"/>
      <point x="1486" y="776"/>
      <point x="1486" y="531" type="qcurve" smooth="yes"/>
      <point x="1486" y="505" type="line" smooth="yes"/>
      <point x="1486" y="282"/>
      <point x="1115" y="-20"/>
    </contour>
    <contour>
      <point x="835" y="132" type="qcurve" smooth="yes"/>
      <point x="1096" y="132"/>
      <point x="1419" y="354"/>
      <point x="1419" y="503" type="qcurve" smooth="yes"/>
      <point x="1419" y="531" type="line" smooth="yes"/>
      <point x="1419" y="704"/>
      <point x="1091" y="920"/>
      <point x="835" y="920" type="qcurve" smooth="yes"/>
      <point x="565" y="920"/>
      <point x="275" y="702"/>
      <point x="275" y="542" type="qcurve" smooth="yes"/>
      <point x="275" y="510" type="line" smooth="yes"/>
      <point x="275" y="350"/>
      <point x="565" y="132"/>
    </contour>
    <contour>
      <point x="1616" y="-30" type="qcurve" smooth="yes"/>
      <point x="1519" y="-30"/>
      <point x="1406" y="53"/>
      <point x="1392" y="145" type="qcurve"/>
      <point x="1376" y="145" type="line"/>
      <point x="1376" y="915" type="line"/>
      <point x="1391" y="915" type="line"/>
      <point x="1399" y="1052" type="line"/>
      <point x="1562" y="1052" type="line"/>
      <point x="1562" y="262" type="line" smooth="yes"/>
      <point x="1562" y="187"/>
      <point x="1607" y="130"/>
      <point x="1657" y="130" type="qcurve"/>
      <point x="1672" y="130"/>
      <point x="1709" y="137"/>
      <point x="1726" y="144" type="qcurve"/>
      <point x="1726" y="-8" type="line"/>
      <point x="1707" y="-17"/>
      <point x="1650" y="-30"/>
    </contour>
  </outline>
</glyph>
<glyph name="beta" format="2">
  <advance width="1720"/>
  <unicode hex="03B2"/>
  <outline>
    <contour>
      <point x="148" y="-416" type="line"/>
      <point x="148" y="978" type="line" smooth="yes"/>
      <point x="148" y="1231"/>
      <point x="547" y="1476"/>
      <point x="865" y="1476" type="qcurve" smooth="yes"/>
      <point x="1188" y="1476"/>
      <point x="1544" y="1270"/>
      <point x="1544" y="1075" type="qcurve" smooth="yes"/>
      <point x="1544" y="956"/>
      <point x="1284" y="779"/>
      <point x="1040" y="754" type="qcurve"/>
      <point x="1040" y="770" type="line"/>
      <point x="1344" y="750"/>
      <point x="1635" y="560"/>
      <point x="1635" y="423" type="qcurve" smooth="yes"/>
      <point x="1635" y="233"/>
      <point x="1225" y="-21"/>
      <point x="916" y="-21" type="qcurve" smooth="yes"/>
      <point x="648" y="-21"/>
      <point x="286" y="147"/>
      <point x="238" y="254" type="qcurve"/>
      <point x="238" y="491" type="line"/>
      <point x="310" y="309"/>
      <point x="638" y="132"/>
      <point x="903" y="132" type="qcurve" smooth="yes"/>
      <point x="1158" y="132"/>
      <point x="1446" y="306"/>
      <point x="1446" y="422" type="qcurve" smooth="yes"/>
      <point x="1446" y="540"/>
      <point x="1153" y="685"/>
      <point x="840" y="685" type="qcurve" smooth="yes"/>
      <point x="472" y="685" type="line"/>
      <point x="472" y="827" type="line"/>
      <point x="841" y="827" type="line" smooth="yes"/>
      <point x="1103" y="827"/>
      <point x="1369" y="967"/>
      <point x="1369" y="1076" type="qcurve" smooth="yes"/>
      <point x="1369" y="1189"/>
      <point x="1119" y="1324"/>
      <point x="865" y="1324" type="qcurve" smooth="yes"/>
      <point x="612" y="1324"/>
      <point x="334" y="1156"/>
      <point x="334" y="985" type="qcurve" smooth="yes"/>
      <point x="334" y="-416" type="line"/>
    </contour>
  </outline>
</glyph>
<glyph name="gamma" format="2">
  <advance width="1482"/>
  <unicode hex="03B3"/>
  <outline>
    <contour>
      <point x="648" y="-366" type="line"/>
      <point x="648" y="58" type="line"/>
      <point x="0" y="1052" type="line"/>
      <point x="180" y="1052" type="line"/>
      <point x="657" y="350" type="line" smooth="yes"/>
      <point x="681" y="315"/>
      <point x="728" y="240"/>
      <point x="741" y="220" type="qcurve"/>
      <point x="747" y="220" type="line"/>
      <point x="759" y="240"/>
      <point x="806" y="315"/>
      <point x="830" y="350" type="qcurve" smooth="yes"/>
      <point x="1306" y="1052" type="line"/>
      <point x="1482" y="1052" type="line"/>
      <point x="834" y="58" type="line"/>
      <point x="834" y="-366" type="line"/>
    </contour>
  </outline>
</glyph>
<glyph name="iota" format="2">
  <advance width="1200"/>
  <unicode hex="03B9"/>
  <anchor x="235" y="1052" name="top"/>
  <outline>
    <contour>
      <point x="690" y="-30" type="qcurve" smooth="yes"/>
      <point x="415" y="-30"/>
      <point x="138" y="110"/>
      <point x="138" y="260" type="qcurve" smooth="yes"/>
      <point x="138" y="1052" type="line"/>
      <point x="324" y="1052" type="line"/>
      <point x="324" y="260" type="line" smooth="yes"/>
      <point x="324" y="190"/>
      <point x="502" y="130"/>
      <point x="740" y="130" type="qcurve" smooth="yes"/>
      <point x="928" y="130"/>
      <point x="1062" y="142"/>
      <point x="1150" y="152" type="qcurve"/>
      <point x="1150" y="0" type="line"/>
      <point x="1064" y="-12"/>
      <point x="900" y="-30"/>
    </contour>
  </outline>
</glyph>
<glyph name="lambda" format="2">
  <advance width="1561"/>
  <unicode hex="03BB"/>
  <outline>
    <contour>
      <point x="0" y="0" type="line"/>
      <point x="703" y="1048" type="line"/>
      <point x="681" y="1110" type="line" smooth="yes"/>
      <point x="641" y="1223"/>
      <point x="436" y="1316"/>
      <point x="358" y="1316" type="qcurve" smooth="yes"/>
      <point x="332" y="1316"/>
      <point x="175" y="1309"/>
      <point x="149" y="1301" type="qcurve"/>
      <point x="149" y="1456" type="line"/>
      <point x="177" y="1466"/>
      <point x="336" y="1476"/>
      <point x="371" y="1476" type="qcurve" smooth="yes"/>
      <point x="495" y="1476"/>
      <point x="742" y="1350"/>
      <point x="802" y="1252" type="qcurve" smooth="yes"/>
      <point x="1561" y="0" type="line"/>
      <point x="1361" y="0" type="line"/>
      <point x="899" y="637" type="line" smooth="yes"/>
      <point x="864" y="686"/>
      <point x="813" y="757"/>
      <point x="791" y="808" type="qcurve"/>
      <point x="785" y="808" type="line"/>
      <point x="764" y="759"/>
      <point x="714" y="673"/>
      <point x="686" y="637" type="qcurve" smooth="yes"/>
      <point x="200" y="0" type="line"/>
    </contour>
  </outline>
</glyph>
<glyph name="finalsigma" format="2">
  <advance width="1678"/>
  <unicode hex="03C2"/>
  <outline>
    <contour>
      <point x="1269" y="-348" type="line"/>
      <point x="1292" y="-295"/>
      <point x="1323" y="-195"/>
      <point x="1323" y="-143" type="qcurve"/>
      <point x="1323" y="-84"/>
      <point x="1132" y="-29"/>
      <point x="918" y="-9" type="qcurve" smooth="yes"/>
      <point x="800" y="2" type="line"/>
      <point x="446" y="38"/>
      <point x="85" y="287"/>
      <point x="85" y="505" type="qcurve" smooth="yes"/>
      <point x="85" y="542" type="line" smooth="yes"/>
      <point x="85" y="772"/>
      <point x="522" y="1082"/>
      <point x="911" y="1082" type="qcurve" smooth="yes"/>
      <point x="1256" y="1082"/>
      <point x="1629" y="851"/>
      <point x="1629" y="715" type="qcurve" smooth="yes"/>
      <point x="1629" y="710" type="line"/>
      <point x="1449" y="710" type="line"/>
      <point x="1449" y="715" type="line" smooth="yes"/>
      <point x="1449" y="800"/>
      <point x="1176" y="930"/>
      <point x="911" y="930" type="qcurve" smooth="yes"/>
      <point x="615" y="930"/>
      <point x="275" y="731"/>
      <point x="275" y="552" type="qcurve" smooth="yes"/>
      <point x="275" y="513" type="line" smooth="yes"/>
      <point x="275" y="364"/>
      <point x="527" y="194"/>
      <point x="859" y="162" type="qcurve"/>
      <point x="981" y="150" type="line"/>
      <point x="1268" y="112"/>
      <point x="1501" y="6"/>
      <point x="1501" y="-84" type="qcurve"/>
      <point x="1501" y="-147"/>
      <point x="1471" y="-278"/>
      <point x="1439" y="-348" type="qcurve"/>
    </contour>
  </outline>
</glyph>
<glyph name="sigma" format="2">
  <advance width="1887"/>
  <unicode hex="03C3"/>
  <outline>
    <contour>
      <point x="911" y="-30" type="qcurve" smooth="yes"/>
      <point x="525" y="-30"/>
      <point x="85" y="250"/>
      <point x="85" y="481" type="qcurve" smooth="yes"/>
      <point x="85" y="512" type="line" smooth="yes"/>
      <point x="85" y="740"/>
      <point x="548" y="1052"/>
      <point x="1020" y="1052" type="qcurve"/>
      <point x="1837" y="1052" type="line"/>
      <point x="1837" y="900" type="line"/>
      <point x="1266" y="900" type="line"/>
      <point x="1266" y="913" type="line"/>
      <point x="1489" y="866"/>
      <point x="1737" y="675"/>
      <point x="1737" y="526" type="qcurve" smooth="yes"/>
      <point x="1737" y="495" type="line" smooth="yes"/>
      <point x="1737" y="264"/>
      <point x="1297" y="-30"/>
    </contour>
    <contour>
      <point x="911" y="122" type="qcurve" smooth="yes"/>
      <point x="1223" y="122"/>
      <point x="1547" y="337"/>
      <point x="1547" y="495" type="qcurve" smooth="yes"/>
      <point x="1547" y="526" type="line" smooth="yes"/>
      <point x="1547" y="678"/>
      <point x="1267" y="865"/>
      <point x="1021" y="899" type="qcurve"/>
      <point x="634" y="906"/>
      <point x="275" y="671"/>
      <point x="275" y="522" type="qcurve" smooth="yes"/>
      <point x="275" y="491" type="line" smooth="yes"/>
      <point x="275" y="333"/>
      <point x="599" y="122"/>
    </contour>
  </outline>
</glyph>
<glyph name="tau" format="2">
  <advance width="1480"/>
  <unicode hex="03C4"/>
  <outline>
    <contour>
      <point x="0" y="900" type="line"/>
      <point x="0" y="1052" type="line"/>
      <point x="1430" y="1052" type="line"/>
      <point x="1430" y="900" type="line"/>
    </contour>
    <contour>
      <point x="1040" y="-30" type="qcurve" smooth="yes"/>
      <point x="795" y="-30"/>
      <point x="608" y="110"/>
      <point x="608" y="260" type="qcurve" smooth="yes"/>
      <point x="608" y="971" type="line"/>
      <point x="794" y="971" type="line"/>
      <point x="794" y="260" type="line" smooth="yes"/>
      <point x="794" y="190"/>
      <point x="900" y="130"/>
      <point x="1090" y="130" type="qcurve" smooth="yes"/>
      <point x="1188" y="130"/>
      <point x="1322" y="142"/>
      <point x="1350" y="152" type="qcurve"/>
      <point x="1350" y="0" type="line"/>
      <point x="1324" y="-12"/>
      <point x="1160" y="-30"/>
    </contour>
  </outline>
</glyph>
<glyph name="upsilon" format="2">
  <advance width="1788"/>
  <unicode hex="03C5"/>
  <anchor x="895.047619047619" y="1052" name="top"/>
  <outline>
    <contour>
      <point x="894.047619047619" y="-20" type="qcurve" smooth="yes"/>
      <point x="507.04761904761904" y="-20"/>
      <point x="135.04761904761904" y="201"/>
      <point x="138.04761904761904" y="403" type="qcurve" smooth="yes"/>
      <point x="138.04761904761904" y="1052" type="line"/>
      <point x="324.04761904761904" y="1052" type="line"/>
      <point x="324.04761904761904" y="401" type="line" smooth="yes"/>
      <point x="324.04761904761904" y="275"/>
      <point x="610.047619047619" y="136"/>
      <point x="894.047619047619" y="136" type="qcurve" smooth="yes"/>
      <point x="1178.047619047619" y="136"/>
      <point x="1466.047619047619" y="275"/>
      <point x="1464.047619047619" y="401" type="qcurve" smooth="yes"/>
      <point x="1464.047619047619" y="1052" type="line"/>
      <point x="1650.047619047619" y="1052" type="line"/>
      <point x="1650.047619047619" y="403" type="line" smooth="yes"/>
      <point x="1650.047619047619" y="201"/>
      <point x="1281.047619047619" y="-20"/>
    </contour>
  </outline>
</glyph>
<glyph name="Lje" format="2">
  <advance width="2776"/>
  <unicode hex="0409"/>
  <outline>
    <contour>
      <point x="119" y="-30" type="qcurve" smooth="yes"/>
      <point x="95" y="-30"/>
      <point x="39" y="-23"/>
      <point x="10" y="-13" type="qcurve"/>
      <point x="10" y="151" type="line"/>
      <point x="34" y="143"/>
      <point x="74" y="138"/>
      <point x="95" y="138" type="qcurve" smooth="yes"/>
      <point x="197" y="138"/>
      <point x="280" y="336"/>
      <point x="290" y="575" type="qcurve" smooth="yes"/>
      <point x="327" y="1456" type="line"/>
      <point x="1568" y="1456" type="line"/>
      <point x="1568" y="158" type="line"/>
      <point x="2068" y="158" type="line" smooth="yes"/>
      <point x="2338" y="158"/>
      <point x="2534" y="325"/>
      <point x="2534" y="445" type="qcurve" smooth="yes"/>
      <point x="2534" y="565"/>
      <point x="2338" y="728"/>
      <point x="2068" y="728" type="qcurve" smooth="yes"/>
      <point x="1478" y="728" type="line"/>
      <point x="1478" y="886" type="line"/>
      <point x="2068" y="886" type="line" smooth="yes"/>
      <point x="2408" y="886"/>
      <point x="2726" y="645"/>
      <point x="2726" y="445" type="qcurve" smooth="yes"/>
      <point x="2726" y="245"/>
      <point x="2408" y="0"/>
      <point x="2068" y="0" type="qcurve" smooth="yes"/>
      <point x="1376" y="0" type="line"/>
      <point x="1376" y="1298" type="line"/>
      <point x="510" y="1298" type="line"/>
      <point x="468" y="542" type="line" smooth="yes"/>
      <point x="452" y="258"/>
      <point x="313" y="-30"/>
    </contour>
  </outline>
</glyph>
<glyph name="Ucyr" format="2">
  <advance width="1978"/>
  <unicode hex="0423"/>
  <anchor x="1005" y="1456" name="top"/>
  <outline>
    <contour>
      <point x="152" y="156" type="line"/>
      <point x="228" y="148"/>
      <point x="442" y="138"/>
      <point x="472" y="138" type="qcurve" smooth="yes"/>
      <point x="626" y="138"/>
      <point x="812" y="189"/>
      <point x="923" y="360" type="qcurve"/>
      <point x="931" y="360" type="line"/>
      <point x="15" y="1456" type="line"/>
      <point x="233" y="1456" type="line"/>
      <point x="910" y="720" type="line" smooth="yes"/>
      <point x="941" y="686"/>
      <point x="992" y="615"/>
      <point x="1017" y="579" type="qcurve"/>
      <point x="1023" y="579" type="line"/>
      <point x="1046" y="615"/>
      <point x="1090" y="689"/>
      <point x="1117" y="720" type="qcurve" smooth="yes"/>
      <point x="1767" y="1456" type="line"/>
      <point x="1963" y="1456" type="line"/>
      <point x="1053" y="186" type="line"/>
      <point x="945" y="64"/>
      <point x="699" y="-30"/>
      <point x="501" y="-30" type="qcurve" smooth="yes"/>
      <point x="442" y="-30"/>
      <point x="230" y="-20"/>
      <point x="152" y="-10" type="qcurve"/>
    </contour>
  </outline>
</glyph>
<glyph name="Ya" format="2">
  <advance width="1888"/>
  <unicode hex="042F"/>
  <anchor x="1050" y="1456" name="top"/>
  <outline>
    <contour>
      <point x="40" y="0" type="line"/>
      <point x="404" y="672" type="line"/>
      <point x="605" y="672" type="line"/>
      <point x="248" y="0" type="line"/>
    </contour>
    <contour>
      <point x="1526" y="0" type="line"/>
      <point x="1526" y="1300" type="line"/>
      <point x="606" y="1300" type="line" smooth="yes"/>
      <point x="440" y="1300"/>
      <point x="310" y="1144"/>
      <point x="310" y="1028" type="qcurve" smooth="yes"/>
      <point x="310" y="912"/>
      <point x="440" y="750"/>
      <point x="606" y="750" type="qcurve" smooth="yes"/>
      <point x="1616" y="750" type="line"/>
      <point x="1616" y="594" type="line"/>
      <point x="547" y="594" type="line"/>
      <point x="502" y="604" type="line"/>
      <point x="317" y="630"/>
      <point x="118" y="858"/>
      <point x="118" y="1028" type="qcurve" smooth="yes"/>
      <point x="118" y="1222"/>
      <point x="372" y="1456"/>
      <point x="606" y="1456" type="qcurve" smooth="yes"/>
      <point x="1718" y="1456" type="line"/>
      <point x="1718" y="0" type="line"/>
    </contour>
  </outline>
</glyph>
<glyph name="be" format="2">
  <advance width="1832"/>
  <unicode hex="0431"/>
  <outline>
    <contour>
      <point x="285" y="522" type="qcurve" smooth="yes"/>
      <point x="285" y="490" type="line" smooth="yes"/>
      <point x="285" y="335"/>
      <point x="609" y="122"/>
      <point x="911" y="122" type="qcurve" smooth="yes"/>
      <point x="1213" y="122"/>
      <point x="1557" y="335"/>
      <point x="1557" y="490" type="qcurve" smooth="yes"/>
      <point x="1557" y="522" type="line" smooth="yes"/>
      <point x="1557" y="677"/>
      <point x="1213" y="890"/>
      <point x="911" y="890" type="qcurve" smooth="yes"/>
      <point x="609" y="890"/>
      <point x="285" y="677"/>
    </contour>
    <contour>
      <point x="957" y="1042" type="qcurve" smooth="yes"/>
      <point x="1316" y="1042"/>
      <point x="1747" y="745"/>
      <point x="1747" y="522" type="qcurve" smooth="yes"/>
      <point x="1747" y="490" type="line" smooth="yes"/>
      <point x="1747" y="261"/>
      <point x="1287" y="-30"/>
      <point x="911" y="-30" type="qcurve" smooth="yes"/>
      <point x="527" y="-30"/>
      <point x="95" y="263"/>
      <point x="95" y="605" type="qcurve" smooth="yes"/>
      <point x="95" y="631" type="line" smooth="yes"/>
      <point x="95" y="999"/>
      <point x="506" y="1340"/>
      <point x="987" y="1367" type="qcurve" smooth="yes"/>
      <point x="1310" y="1385"/>
      <point x="1543" y="1432"/>
      <point x="1547" y="1456" type="qcurve"/>
      <point x="1711" y="1456" type="line"/>
      <point x="1700" y="1347"/>
      <point x="1367" y="1214"/>
      <point x="1008" y="1199" type="qcurve" smooth="yes"/>
      <point x="592" y="1182"/>
      <point x="259" y="996"/>
      <point x="242" y="801" type="qcurve"/>
      <point x="253" y="801" type="line"/>
      <point x="327" y="913"/>
      <point x="676" y="1042"/>
    </contour>
  </outline>
</glyph>
<glyph name="ve" format="2">
  <advance width="1815"/>
  <unicode hex="0432"/>
  <outline>
    <contour>
      <point x="148" y="0" type="line"/>
      <point x="148" y="1052" type="line"/>
      <point x="1292" y="1052" type="line" smooth="yes"/>
      <point x="1467" y="1052"/>
      <point x="1668" y="912"/>
      <point x="1668" y="771" type="qcurve" smooth="yes"/>
      <point x="1668" y="682"/>
      <point x="1561" y="563"/>
      <point x="1482" y="544" type="qcurve"/>
      <point x="1482" y="541" type="line"/>
      <point x="1578" y="525"/>
      <point x="1705" y="402"/>
      <point x="1705" y="306" type="qcurve" smooth="yes"/>
      <point x="1705" y="161"/>
      <point x="1495" y="0"/>
      <point x="1322" y="0" type="qcurve" smooth="yes"/>
    </contour>
    <contour>
      <point x="334" y="145" type="line"/>
      <point x="1322" y="145" type="line" smooth="yes"/>
      <point x="1423" y="145"/>
      <point x="1518" y="234"/>
      <point x="1518" y="306" type="qcurve" smooth="yes"/>
      <point x="1518" y="377"/>
      <point x="1424" y="463"/>
      <point x="1322" y="463" type="qcurve" smooth="yes"/>
      <point x="254" y="463" type="line"/>
      <point x="254" y="607" type="line"/>
      <point x="1292" y="607" type="line" smooth="yes"/>
      <point x="1392" y="607"/>
      <point x="1480" y="690"/>
      <point x="1480" y="761" type="qcurve" smooth="yes"/>
      <point x="1480" y="831"/>
      <point x="1392" y="907"/>
      <point x="1292" y="907" type="qcurve" smooth="yes"/>
      <point x="334" y="907" type="line"/>
    </contour>
  </outline>
</glyph>
<glyph name="ze" format="2">
  <advance width="1755"/>
  <unicode hex="0437"/>
  <anchor x="886" y="-1" name="bottom"/>
  <outline>
    <contour>
      <point x="867" y="-30" type="qcurve" smooth="yes"/>
      <point x="472" y="-30"/>
      <point x="89" y="197"/>
      <point x="89" y="337" type="qcurve" smooth="yes"/>
      <point x="89" y="342" type="line"/>
      <point x="269" y="342" type="line"/>
      <point x="269" y="337" type="line" smooth="yes"/>
      <point x="269" y="256"/>
      <point x="558" y="122"/>
      <point x="868" y="122" type="qcurve" smooth="yes"/>
      <point x="1151" y="122"/>
      <point x="1458" y="222"/>
      <point x="1458" y="309" type="qcurve" smooth="yes"/>
      <point x="1458" y="379"/>
      <point x="1264" y="463"/>
      <point x="932" y="463" type="qcurve" smooth="yes"/>
      <point x="417" y="463" type="line"/>
      <point x="417" y="607" type="line"/>
      <point x="902" y="607" type="line" smooth="yes"/>
      <point x="1215" y="607"/>
      <point x="1425" y="690"/>
      <point x="1425" y="761" type="qcurve" smooth="yes"/>
      <point x="1425" y="842"/>
      <point x="1142" y="930"/>
      <point x="880" y="930" type="qcurve" smooth="yes"/>
      <point x="590" y="930"/>
      <point x="289" y="809"/>
      <point x="289" y="715" type="qcurve" smooth="yes"/>
      <point x="289" y="710" type="line"/>
      <point x="109" y="710" type="line"/>
      <point x="109" y="715" type="line" smooth="yes"/>
      <point x="109" y="882"/>
      <point x="510" y="1082"/>
      <point x="880" y="1082" type="qcurve" smooth="yes"/>
      <point x="1240" y="1082"/>
      <point x="1613" y="916"/>
      <point x="1613" y="776" type="qcurve" smooth="yes"/>
      <point x="1613" y="695"/>
      <point x="1424" y="563"/>
      <point x="1184" y="544" type="qcurve"/>
      <point x="1184" y="541" type="line"/>
      <point x="1441" y="525"/>
      <point x="1645" y="404"/>
      <point x="1645" y="309" type="qcurve" smooth="yes"/>
      <point x="1645" y="145"/>
      <point x="1227" y="-30"/>
    </contour>
  </outline>
</glyph>
<glyph name="em" format="2">
  <advance width="2106"/>
  <unicode hex="043C"/>
  <outline>
    <contour>
      <point x="148" y="0" type="line"/>
      <point x="148" y="1052" type="line"/>
      <point x="402" y="1052" type="line"/>
      <point x="947" y="327" type="line" smooth="yes"/>
      <point x="986" y="276"/>
      <point x="1035" y="224"/>
      <point x="1050" y="200" type="qcurve"/>
      <point x="1060" y="200" type="line"/>
      <point x="1080" y="224"/>
      <point x="1125" y="276"/>
      <point x="1162" y="325" type="qcurve" smooth="yes"/>
      <point x="1709" y="1052" type="line"/>
      <point x="1958" y="1052" type="line"/>
      <point x="1958" y="0" type="line"/>
      <point x="1781" y="0" type="line"/>
      <point x="1781" y="716" type="line" smooth="yes"/>
      <point x="1781" y="775"/>
      <point x="1784" y="826"/>
      <point x="1786" y="846" type="qcurve"/>
      <point x="1777" y="846" type="line"/>
      <point x="1760" y="826"/>
      <point x="1692" y="743"/>
      <point x="1674" y="719" type="qcurve" smooth="yes"/>
      <point x="1130" y="0" type="line"/>
      <point x="970" y="0" type="line"/>
      <point x="420" y="722" type="line" smooth="yes"/>
      <point x="406" y="740"/>
      <point x="340" y="826"/>
      <point x="324" y="846" type="qcurve"/>
      <point x="314" y="846" type="line"/>
      <point x="316" y="826"/>
      <point x="319" y="776"/>
      <point x="319" y="723" type="qcurve" smooth="yes"/>
      <point x="319" y="0" type="line"/>
    </contour>
  </outline>
</glyph>
<glyph name="en" format="2">
  <advance width="1687"/>
  <unicode hex="043D"/>
  <anchor x="1451" y="0" name="cy_descender"/>
  <outline>
    <contour>
      <point x="148" y="0" type="line"/>
      <point x="148" y="1052" type="line"/>
      <point x="334" y="1052" type="line"/>
      <point x="334" y="0" type="line"/>
    </contour>
    <contour>
      <point x="244" y="465" type="line"/>
      <point x="244" y="610" type="line"/>
      <point x="1443" y="610" type="line"/>
      <point x="1443" y="465" type="line"/>
    </contour>
    <contour>
      <point x="1353" y="0" type="line"/>
      <point x="1353" y="1052" type="line"/>
      <point x="1539" y="1052" type="line"/>
      <point x="1539" y="0" type="line"/>
    </contour>
  </outline>
</glyph>
<glyph name="che" format="2">
  <advance width="1625"/>
  <unicode hex="0447"/>
  <guideline x="855" y="515" angle="90.0" identifier="GGEFes61Q6"/>
  <anchor x="1385" y="0" name="cy_descender"/>
  <outline>
    <contour>
      <point x="311" y="773" type="line" smooth="yes"/>
      <point x="311" y="642"/>
      <point x="480" y="542"/>
      <point x="853" y="542" type="qcurve" smooth="yes"/>
      <point x="1042" y="542"/>
      <point x="1246" y="568"/>
      <point x="1384" y="590" type="qcurve"/>
      <point x="1384" y="444" type="line"/>
      <point x="1249" y="425"/>
      <point x="1041" y="396"/>
      <point x="817" y="396" type="qcurve" smooth="yes"/>
      <point x="371" y="396"/>
      <point x="125" y="579"/>
      <point x="125" y="773" type="qcurve" smooth="yes"/>
      <point x="125" y="1052" type="line"/>
      <point x="311" y="1052" type="line"/>
    </contour>
    <contour>
      <point x="1477" y="1052" type="line"/>
      <point x="1477" y="0" type="line"/>
      <point x="1291" y="0" type="line"/>
      <point x="1291" y="1052" type="line"/>
    </contour>
  </outline>
</glyph>
<glyph name="ecyr" format="2">
  <advance width="1758"/>
  <unicode hex="044D"/>
  <guideline x="889" y="493" angle="90.0" identifier="9ss4WcbEUf"/>
  <anchor x="867" y="1052" name="top"/>
  <outline>
    <contour>
      <point x="1673" y="510" type="line" smooth="yes"/>
      <point x="1673" y="260"/>
      <point x="1244" y="-30"/>
      <point x="867" y="-30" type="qcurve" smooth="yes"/>
      <point x="492" y="-30"/>
      <point x="69" y="197"/>
      <point x="69" y="337" type="qcurve" smooth="yes"/>
      <point x="69" y="342" type="line"/>
      <point x="249" y="342" type="line"/>
      <point x="249" y="337" type="line" smooth="yes"/>
      <point x="249" y="252"/>
      <point x="572" y="122"/>
      <point x="867" y="122" type="qcurve" smooth="yes"/>
      <point x="1167" y="122"/>
      <point x="1489" y="337"/>
      <point x="1489" y="500" type="qcurve" smooth="yes"/>
      <point x="1489" y="564" type="line" smooth="yes"/>
      <point x="1489" y="717"/>
      <point x="1166" y="930"/>
      <point x="871" y="930" type="qcurve" smooth="yes"/>
      <point x="576" y="930"/>
      <point x="253" y="797"/>
      <point x="253" y="715" type="qcurve" smooth="yes"/>
      <point x="253" y="710" type="line"/>
      <point x="73" y="710" type="line"/>
      <point x="73" y="715" type="line" smooth="yes"/>
      <point x="73" y="855"/>
      <point x="496" y="1082"/>
      <point x="871" y="1082" type="qcurve" smooth="yes"/>
      <point x="1246" y="1082"/>
      <point x="1673" y="791"/>
      <point x="1673" y="542" type="qcurve" smooth="yes"/>
    </contour>
    <contour>
      <point x="1579" y="610" type="line"/>
      <point x="1579" y="465" type="line"/>
      <point x="358" y="465" type="line"/>
      <point x="358" y="610" type="line"/>
    </contour>
  </outline>
</glyph>
<glyph name="ieukran" format="2">
  <advance width="1728"/>
  <unicode hex="0454"/>
  <guideline x="180" y="548" angle="90.0" identifier="n4jm0tBg3Y"/>
  <outline>
    <contour>
      <point x="85" y="510" type="qcurve" smooth="yes"/>
      <point x="85" y="542" type="line" smooth="yes"/>
      <point x="85" y="784"/>
      <point x="514" y="1082"/>
      <point x="901" y="1082" type="qcurve" smooth="yes"/>
      <point x="1261" y="1082"/>
      <point x="1659" y="855"/>
      <point x="1659" y="715" type="qcurve" smooth="yes"/>
      <point x="1659" y="710" type="line"/>
      <point x="1479" y="710" type="line"/>
      <point x="1479" y="715" type="line" smooth="yes"/>
      <point x="1479" y="800"/>
      <point x="1181" y="930"/>
      <point x="901" y="930" type="qcurve" smooth="yes"/>
      <point x="591" y="930"/>
      <point x="269" y="713"/>
      <point x="269" y="564" type="qcurve" smooth="yes"/>
      <point x="269" y="500" type="line" smooth="yes"/>
      <point x="269" y="339"/>
      <point x="591" y="122"/>
      <point x="901" y="122" type="qcurve" smooth="yes"/>
      <point x="1181" y="122"/>
      <point x="1479" y="252"/>
      <point x="1479" y="337" type="qcurve" smooth="yes"/>
      <point x="1479" y="342" type="line"/>
      <point x="1659" y="342" type="line"/>
      <point x="1659" y="337" type="line" smooth="yes"/>
      <point x="1659" y="197"/>
      <point x="1261" y="-30"/>
      <point x="901" y="-30" type="qcurve" smooth="yes"/>
      <point x="514" y="-30"/>
      <point x="85" y="273"/>
    </contour>
    <contour>
      <point x="181" y="610" type="line"/>
      <point x="1370" y="610" type="line"/>
      <point x="1370" y="465" type="line"/>
      <point x="181" y="465" type="line"/>
    </contour>
  </outline>
</glyph>
<glyph name="nje" format="2">
  <advance width="2371"/>
  <unicode hex="045A"/>
  <outline>
    <contour>
      <point x="148" y="0" type="line"/>
      <point x="148" y="1052" type="line"/>
      <point x="334" y="1052" type="line"/>
      <point x="334" y="0" type="line"/>
    </contour>
    <contour>
      <point x="244" y="525" type="line"/>
      <point x="244" y="670" type="line"/>
      <point x="1231" y="670" type="line"/>
      <point x="1231" y="525" type="line"/>
    </contour>
    <contour>
      <point x="1141" y="0" type="line"/>
      <point x="1141" y="1052" type="line"/>
      <point x="1327" y="1052" type="line"/>
      <point x="1327" y="145" type="line"/>
      <point x="1899" y="145" type="line" smooth="yes"/>
      <point x="2024" y="145"/>
      <point x="2125" y="254"/>
      <point x="2125" y="337" type="qcurve" smooth="yes"/>
      <point x="2125" y="418"/>
      <point x="2024" y="525"/>
      <point x="1899" y="525" type="qcurve" smooth="yes"/>
      <point x="1257" y="525" type="line"/>
      <point x="1257" y="670" type="line"/>
      <point x="1899" y="670" type="line" smooth="yes"/>
      <point x="2102" y="670"/>
      <point x="2311" y="491"/>
      <point x="2311" y="337" type="qcurve" smooth="yes"/>
      <point x="2311" y="183"/>
      <point x="2102" y="0"/>
      <point x="1899" y="0" type="qcurve" smooth="yes"/>
    </contour>
  </outline>
</glyph>
<glyph name="ustraight" format="2">
  <advance width="1602"/>
  <unicode hex="04AF"/>
  <outline>
    <contour>
      <point x="708" y="-416" type="line"/>
      <point x="708" y="0" type="line"/>
      <point x="0" y="1052" type="line"/>
      <point x="180" y="1052" type="line"/>
      <point x="714" y="289" type="line"/>
      <point x="737" y="248"/>
      <point x="787" y="179"/>
      <point x="801" y="159" type="qcurve"/>
      <point x="807" y="159" type="line"/>
      <point x="821" y="179"/>
      <point x="872" y="247"/>
      <point x="895" y="289" type="qcurve"/>
      <point x="1426" y="1052" type="line"/>
      <point x="1602" y="1052" type="line"/>
      <point x="894" y="0" type="line"/>
      <point x="894" y="-416" type="line"/>
    </contour>
  </outline>
</glyph>
<glyph name="horizontalbar" format="2">
  <advance width="1566"/>
  <unicode hex="2015"/>
  <anchor x="778" y="708" name="_center"/>
  <outline>
    <contour>
      <point x="20" y="626" type="line"/>
      <point x="20" y="792" type="line"/>
      <point x="1535" y="792" type="line"/>
      <point x="1535" y="626" type="line"/>
    </contour>
  </outline>
</glyph>
<glyph name="lira" format="2">
  <advance width="2211"/>
  <unicode hex="20A4"/>
  <outline>
    <contour>
      <point x="2215" y="0" type="line"/>
      <point x="36" y="0" type="line"/>
      <point x="36" y="160" type="line"/>
      <point x="162" y="160" type="line" smooth="yes"/>
      <point x="314" y="160"/>
      <point x="470" y="324"/>
      <point x="441" y="467" type="qcurve" smooth="yes"/>
      <point x="339" y="976" type="line" smooth="yes"/>
      <point x="289" y="1228"/>
      <point x="630" y="1475"/>
      <point x="1089" y="1475" type="qcurve" smooth="yes"/>
      <point x="1599" y="1475"/>
      <point x="1908" y="1270"/>
      <point x="1908" y="1102" type="qcurve" smooth="yes"/>
      <point x="1908" y="1086" type="line"/>
      <point x="1719" y="1086" type="line"/>
      <point x="1719" y="1103" type="line" smooth="yes"/>
      <point x="1719" y="1218"/>
      <point x="1493" y="1319"/>
      <point x="1094" y="1319" type="qcurve" smooth="yes"/>
      <point x="745" y="1319"/>
      <point x="483" y="1162"/>
      <point x="521" y="978" type="qcurve" smooth="yes"/>
      <point x="618" y="508" type="line" smooth="yes"/>
      <point x="646" y="373"/>
      <point x="540" y="211"/>
      <point x="422" y="166" type="qcurve"/>
      <point x="2215" y="166" type="line"/>
    </contour>
    <contour>
      <point x="1799" y="436" type="line"/>
      <point x="52" y="436" type="line"/>
      <point x="52" y="586" type="line"/>
      <point x="1799" y="586" type="line"/>
    </contour>
    <contour>
      <point x="1799" y="761" type="line"/>
      <point x="52" y="761" type="line"/>
      <point x="52" y="911" type="line"/>
      <point x="1799" y="911" type="line"/>
    </contour>
  </outline>
</glyph>
<glyph name="peseta" format="2">
  <advance width="3232"/>
  <unicode hex="20A7"/>
  <outline>
    <contour>
      <point x="1235" y="565" type="qcurve"/>
      <point x="260" y="565" type="line"/>
      <point x="260" y="717" type="line"/>
      <point x="1235" y="717" type="line"/>
      <point x="1418" y="717"/>
      <point x="1522" y="898"/>
      <point x="1522" y="1009" type="qcurve"/>
      <point x="1522" y="1120"/>
      <point x="1418" y="1304"/>
      <point x="1235" y="1304" type="qcurve"/>
      <point x="352" y="1304" type="line"/>
      <point x="352" y="0" type="line"/>
      <point x="167" y="0" type="line"/>
      <point x="167" y="1456" type="line"/>
      <point x="1235" y="1456" type="line"/>
      <point x="1491" y="1456"/>
      <point x="1708" y="1202"/>
      <point x="1708" y="1011" type="qcurve"/>
      <point x="1708" y="819"/>
      <point x="1491" y="565"/>
    </contour>
    <contour>
      <point x="3055" y="1026" type="line"/>
      <point x="3055" y="884" type="line"/>
      <point x="1613" y="884" type="line"/>
      <point x="1613" y="1026" type="line"/>
    </contour>
    <contour>
      <point x="2227" y="1345" type="line"/>
      <point x="2412" y="1345" type="line"/>
      <point x="2412" y="366" type="line"/>
      <point x="2412" y="225"/>
      <point x="2584" y="138"/>
      <point x="2779" y="138" type="qcurve" smooth="yes"/>
      <point x="2867" y="138"/>
      <point x="3030" y="157"/>
      <point x="3154" y="185" type="qcurve"/>
      <point x="3154" y="34" type="line"/>
      <point x="3023" y="1"/>
      <point x="2825" y="-20"/>
      <point x="2733" y="-20" type="qcurve" smooth="yes"/>
      <point x="2470" y="-20"/>
      <point x="2227" y="145"/>
      <point x="2227" y="373" type="qcurve"/>
    </contour>
  </outline>
</glyph>
<glyph name="uni20AD" format="2">
  <advance width="1961"/>
  <unicode hex="20AD"/>
  <outline>
    <contour>
      <point x="130" y="0" type="line"/>
      <point x="130" y="1456" type="line"/>
      <point x="317" y="1456" type="line"/>
      <point x="317" y="0" type="line"/>
    </contour>
    <contour>
      <point x="1765" y="0" type="line"/>
      <point x="730" y="766" type="line"/>
      <point x="850" y="904" type="line"/>
      <point x="1981" y="0" type="line"/>
    </contour>
    <contour>
      <point x="226" y="379" type="line"/>
      <point x="226" y="640" type="line"/>
      <point x="1754" y="1456" type="line"/>
      <point x="1956" y="1456" type="line"/>
    </contour>
    <contour>
      <point x="-9" y="661" type="line"/>
      <point x="-9" y="809" type="line"/>
      <point x="226" y="809" type="line"/>
      <point x="226" y="773" type="line"/>
      <point x="885" y="773" type="line"/>
      <point x="885" y="809" type="line"/>
      <point x="1873" y="809" type="line"/>
      <point x="1873" y="661" type="line"/>
      <point x="885" y="661" type="line"/>
      <point x="885" y="697" type="line"/>
      <point x="226" y="697" type="line"/>
      <point x="226" y="661" type="line"/>
    </contour>
  </outline>
</glyph>
<glyph name="liraTurkish" format="2">
  <advance width="1925"/>
  <unicode hex="20BA"/>
  <outline>
    <contour>
      <point x="6" y="334" type="line"/>
      <point x="6" y="502" type="line"/>
      <point x="1413" y="933" type="line"/>
      <point x="1407" y="766" type="line"/>
    </contour>
    <contour>
      <point x="180" y="0" type="line"/>
      <point x="180" y="1456" type="line"/>
      <point x="362" y="1456" type="line"/>
      <point x="362" y="153" type="line"/>
      <point x="985" y="153" type="line" smooth="yes"/>
      <point x="1370" y="153"/>
      <point x="1737" y="363"/>
      <point x="1737" y="523" type="qcurve" smooth="yes"/>
      <point x="1737" y="558" type="line"/>
      <point x="1916" y="558" type="line"/>
      <point x="1916" y="523" type="line" smooth="yes"/>
      <point x="1916" y="298"/>
      <point x="1478" y="0"/>
      <point x="994" y="0" type="qcurve" smooth="yes"/>
    </contour>
    <contour>
      <point x="6" y="694" type="line"/>
      <point x="6" y="862" type="line"/>
      <point x="1413" y="1293" type="line"/>
      <point x="1407" y="1126" type="line"/>
    </contour>
  </outline>
</glyph>
<glyph name="manat" format="2">
  <advance width="2371"/>
  <unicode hex="20BC"/>
  <outline>
    <contour>
      <point x="2304" y="915" type="qcurve" smooth="yes"/>
      <point x="2304" y="-1" type="line"/>
      <point x="2122" y="0" type="line"/>
      <point x="2122" y="916" type="line" smooth="yes"/>
      <point x="2122" y="1078"/>
      <point x="1645" y="1252"/>
      <point x="1185" y="1252" type="qcurve" smooth="yes"/>
      <point x="728" y="1252"/>
      <point x="247" y="1078"/>
      <point x="247" y="916" type="qcurve" smooth="yes"/>
      <point x="247" y="0" type="line"/>
      <point x="65" y="0" type="line"/>
      <point x="65" y="916" type="line" smooth="yes"/>
      <point x="65" y="1157"/>
      <point x="638" y="1416"/>
      <point x="1185" y="1416" type="qcurve" smooth="yes"/>
      <point x="1733" y="1416"/>
      <point x="2304" y="1156"/>
    </contour>
    <contour>
      <point x="1265" y="0" type="line"/>
      <point x="1105" y="0" type="line"/>
      <point x="1105" y="1582" type="line"/>
      <point x="1265" y="1582" type="line"/>
    </contour>
  </outline>
</glyph>
<glyph name="be.locl" format="2">
  <advance width="1822"/>
  <outline>
    <contour>
      <point x="275" y="522" type="qcurve" smooth="yes"/>
      <point x="275" y="490" type="line" smooth="yes"/>
      <point x="275" y="335"/>
      <point x="609" y="122"/>
      <point x="911" y="122" type="qcurve" smooth="yes"/>
      <point x="1213" y="122"/>
      <point x="1547" y="335"/>
      <point x="1547" y="490" type="qcurve" smooth="yes"/>
      <point x="1547" y="522" type="line" smooth="yes"/>
      <point x="1547" y="670"/>
      <point x="1216" y="890"/>
      <point x="911" y="890" type="qcurve" smooth="yes"/>
      <point x="609" y="890"/>
      <point x="275" y="677"/>
    </contour>
    <contour>
      <point x="85" y="490" type="qcurve" smooth="yes"/>
      <point x="85" y="522" type="line" smooth="yes"/>
      <point x="85" y="677"/>
      <point x="424" y="920"/>
      <point x="726" y="965" type="qcurve"/>
      <point x="726" y="969" type="line"/>
      <point x="424" y="991"/>
      <point x="145" y="1109"/>
      <point x="145" y="1221" type="qcurve" smooth="yes"/>
      <point x="145" y="1344"/>
      <point x="511" y="1485"/>
      <point x="886" y="1485" type="qcurve" smooth="yes"/>
      <point x="983" y="1485" type="line" smooth="yes"/>
      <point x="1239" y="1485"/>
      <point x="1513" y="1503"/>
      <point x="1522" y="1536" type="qcurve"/>
      <point x="1685" y="1536" type="line"/>
      <point x="1673" y="1422"/>
      <point x="1335" y="1316"/>
      <point x="995" y="1316" type="qcurve" smooth="yes"/>
      <point x="898" y="1316" type="line" smooth="yes"/>
      <point x="608" y="1316"/>
      <point x="322" y="1265"/>
      <point x="322" y="1205" type="qcurve" smooth="yes"/>
      <point x="322" y="1114"/>
      <point x="698" y="1051"/>
      <point x="989" y="1038" type="qcurve"/>
      <point x="1349" y="1009"/>
      <point x="1737" y="724"/>
      <point x="1737" y="522" type="qcurve" smooth="yes"/>
      <point x="1737" y="490" type="line" smooth="yes"/>
      <point x="1737" y="261"/>
      <point x="1287" y="-30"/>
      <point x="911" y="-30" type="qcurve" smooth="yes"/>
      <point x="535" y="-30"/>
      <point x="85" y="261"/>
    </contour>
  </outline>
</glyph>
<glyph name="brevecomb.case" format="2">
  <anchor x="0" y="1456" name="_top"/>
  <anchor x="0" y="1936" name="top"/>
  <outline>
    <contour>
      <point x="0" y="1600" type="qcurve"/>
      <point x="-196" y="1600"/>
      <point x="-474" y="1753"/>
      <point x="-552" y="1867" type="qcurve"/>
      <point x="-452" y="1936" type="line"/>
      <point x="-384" y="1873"/>
      <point x="-156" y="1770"/>
      <point x="0" y="1770" type="qcurve"/>
      <point x="156" y="1770"/>
      <point x="384" y="1873"/>
      <point x="452" y="1936" type="qcurve"/>
      <point x="552" y="1867" type="line"/>
      <point x="474" y="1753"/>
      <point x="196" y="1600"/>
    </contour>
  </outline>
</glyph>
<glyph name="brevecombstack.case" format="2">
  <anchor x="0" y="1536" name="_top"/>
  <anchor x="0" y="1910" name="top"/>
  <outline>
    <contour>
      <point x="0" y="1610" type="qcurve"/>
      <point x="-186" y="1610"/>
      <point x="-483" y="1745"/>
      <point x="-552" y="1845" type="qcurve"/>
      <point x="-442" y="1910" type="line"/>
      <point x="-375" y="1856"/>
      <point x="-156" y="1769"/>
      <point x="0" y="1769" type="qcurve"/>
      <point x="156" y="1769"/>
      <point x="375" y="1856"/>
      <point x="442" y="1910" type="qcurve"/>
      <point x="552" y="1845" type="line"/>
      <point x="483" y="1745"/>
      <point x="186" y="1610"/>
    </contour>
  </outline>
</glyph>
<glyph name="dieresiscomb-stack.case" format="2">
  <anchor x="0.0" y="1456" name="_top"/>
  <anchor x="0.0" y="1831" name="top"/>
  <outline>
    <contour>
      <point x="-446" y="1717" type="qcurve" smooth="yes"/>
      <point x="-446" y="1772"/>
      <point x="-386" y="1831"/>
      <point x="-330" y="1831" type="qcurve" smooth="yes"/>
      <point x="-277" y="1831"/>
      <point x="-214" y="1768"/>
      <point x="-214" y="1717" type="qcurve" smooth="yes"/>
      <point x="-214" y="1663"/>
      <point x="-273" y="1604"/>
      <point x="-330" y="1604" type="qcurve" smooth="yes"/>
      <point x="-383" y="1604"/>
      <point x="-446" y="1666"/>
    </contour>
    <contour>
      <point x="214" y="1717" type="qcurve" smooth="yes"/>
      <point x="214" y="1772"/>
      <point x="274" y="1831"/>
      <point x="330" y="1831" type="qcurve" smooth="yes"/>
      <point x="383" y="1831"/>
      <point x="446" y="1768"/>
      <point x="446" y="1717" type="qcurve" smooth="yes"/>
      <point x="446" y="1663"/>
      <point x="387" y="1604"/>
      <point x="330" y="1604" type="qcurve" smooth="yes"/>
      <point x="277" y="1604"/>
      <point x="214" y="1666"/>
    </contour>
  </outline>
</glyph>
<glyph name="el.bgr" format="2">
  <advance width="1602"/>
  <outline>
    <contour>
      <point x="1602" y="0" type="line"/>
      <point x="1422" y="0" type="line"/>
      <point x="894" y="702" type="line" smooth="yes"/>
      <point x="888" y="710"/>
      <point x="816" y="812"/>
      <point x="801" y="832" type="qcurve"/>
      <point x="795" y="832" type="line"/>
      <point x="781" y="812"/>
      <point x="708" y="710"/>
      <point x="702" y="702" type="qcurve" smooth="yes"/>
      <point x="176" y="0" type="line"/>
      <point x="0" y="0" type="line"/>
      <point x="732" y="1052" type="line"/>
      <point x="869" y="1052" type="line"/>
    </contour>
  </outline>
</glyph>
<glyph name="ghe.bgr" format="2">
  <advance width="1670"/>
  <outline>
    <contour>
      <point x="1590" y="310" type="line"/>
      <point x="1590" y="305" type="line" smooth="yes"/>
      <point x="1590" y="153"/>
      <point x="1200" y="-30"/>
      <point x="830" y="-30" type="qcurve" smooth="yes"/>
      <point x="460" y="-30"/>
      <point x="80" y="150"/>
      <point x="80" y="290" type="qcurve" smooth="yes"/>
      <point x="80" y="450"/>
      <point x="424" y="606"/>
      <point x="765" y="620" type="qcurve" smooth="yes"/>
      <point x="1109" y="634"/>
      <point x="1381" y="710"/>
      <point x="1381" y="790" type="qcurve" smooth="yes"/>
      <point x="1381" y="850"/>
      <point x="1110" y="930"/>
      <point x="840" y="930" type="qcurve" smooth="yes"/>
      <point x="570" y="930"/>
      <point x="295" y="844"/>
      <point x="295" y="769" type="qcurve" smooth="yes"/>
      <point x="295" y="760" type="line"/>
      <point x="110" y="760" type="line"/>
      <point x="110" y="765" type="line" smooth="yes"/>
      <point x="110" y="911"/>
      <point x="500" y="1082"/>
      <point x="840" y="1082" type="qcurve" smooth="yes"/>
      <point x="1180" y="1082"/>
      <point x="1565" y="910"/>
      <point x="1565" y="780" type="qcurve" smooth="yes"/>
      <point x="1565" y="630"/>
      <point x="1209" y="479"/>
      <point x="865" y="465" type="qcurve" smooth="yes"/>
      <point x="524" y="451"/>
      <point x="263" y="370"/>
      <point x="263" y="280" type="qcurve" smooth="yes"/>
      <point x="263" y="210"/>
      <point x="560" y="122"/>
      <point x="830" y="122" type="qcurve" smooth="yes"/>
      <point x="1100" y="122"/>
      <point x="1404" y="213"/>
      <point x="1404" y="305" type="qcurve" smooth="yes"/>
      <point x="1404" y="310" type="line"/>
    </contour>
  </outline>
</glyph>
<glyph name="hard.bgr" format="2">
  <advance width="1920"/>
  <outline>
    <contour>
      <point x="320" y="351" type="qcurve" smooth="yes"/>
      <point x="320" y="907" type="line"/>
      <point x="30" y="907" type="line"/>
      <point x="30" y="1052" type="line"/>
      <point x="506" y="1052" type="line"/>
      <point x="506" y="351" type="line" smooth="yes"/>
      <point x="506" y="252"/>
      <point x="788" y="123"/>
      <point x="1088" y="123" type="qcurve" smooth="yes"/>
      <point x="1390" y="123"/>
      <point x="1674" y="252"/>
      <point x="1674" y="351" type="qcurve" smooth="yes"/>
      <point x="1674" y="447"/>
      <point x="1399" y="573"/>
      <point x="1108" y="573" type="qcurve" smooth="yes"/>
      <point x="416" y="573" type="line"/>
      <point x="416" y="718" type="line"/>
      <point x="1108" y="718" type="line" smooth="yes"/>
      <point x="1474" y="718"/>
      <point x="1860" y="521"/>
      <point x="1860" y="351" type="qcurve" smooth="yes"/>
      <point x="1860" y="171"/>
      <point x="1464" y="-30"/>
      <point x="1088" y="-30" type="qcurve" smooth="yes"/>
      <point x="714" y="-30"/>
      <point x="320" y="174"/>
    </contour>
  </outline>
</glyph>
<glyph name="sha.bgr" format="2">
  <advance width="2776"/>
  <anchor x="2535" y="0" name="cy_descender"/>
  <outline>
    <contour>
      <point x="2628" y="1052" type="line"/>
      <point x="2628" y="0" type="line"/>
      <point x="2460" y="0" type="line"/>
      <point x="2442" y="245" type="line"/>
      <point x="2442" y="1052" type="line"/>
    </contour>
    <contour>
      <point x="1289" y="371" type="qcurve" smooth="yes"/>
      <point x="1289" y="1052" type="line"/>
      <point x="1475" y="1052" type="line"/>
      <point x="1475" y="371" type="line" smooth="yes"/>
      <point x="1475" y="245"/>
      <point x="1711" y="136"/>
      <point x="1876" y="136" type="qcurve" smooth="yes"/>
      <point x="2116" y="136"/>
      <point x="2419" y="252"/>
      <point x="2535" y="485" type="qcurve"/>
      <point x="2535" y="306" type="line"/>
      <point x="2458" y="120"/>
      <point x="2096" y="-20"/>
      <point x="1836" y="-20" type="qcurve" smooth="yes"/>
      <point x="1599" y="-20"/>
      <point x="1289" y="161"/>
    </contour>
    <contour>
      <point x="1393" y="306" type="line"/>
      <point x="1302" y="120"/>
      <point x="925" y="-20"/>
      <point x="685" y="-20" type="qcurve" smooth="yes"/>
      <point x="413" y="-20"/>
      <point x="138" y="177"/>
      <point x="138" y="373" type="qcurve" smooth="yes"/>
      <point x="138" y="1052" type="line"/>
      <point x="324" y="1052" type="line"/>
      <point x="324" y="371" type="line" smooth="yes"/>
      <point x="324" y="245"/>
      <point x="532" y="136"/>
      <point x="725" y="136" type="qcurve" smooth="yes"/>
      <point x="937" y="136"/>
      <point x="1265" y="252"/>
      <point x="1393" y="485" type="qcurve"/>
    </contour>
  </outline>
</glyph>
<glyph name="ze.bgr" format="2">
  <advance width="1652"/>
  <outline>
    <contour>
      <point x="25" y="-20" type="qcurve" smooth="yes"/>
      <point x="25" y="-10" type="line"/>
      <point x="205" y="-10" type="line"/>
      <point x="205" y="-20" type="line" smooth="yes"/>
      <point x="205" y="-141"/>
      <point x="521" y="-276"/>
      <point x="801" y="-276" type="qcurve" smooth="yes"/>
      <point x="1082" y="-276"/>
      <point x="1396" y="-143"/>
      <point x="1396" y="0" type="qcurve" smooth="yes"/>
      <point x="1396" y="139"/>
      <point x="1079" y="282"/>
      <point x="782" y="282" type="qcurve" smooth="yes"/>
      <point x="344" y="282" type="line"/>
      <point x="344" y="436" type="line"/>
      <point x="773" y="436" type="line" smooth="yes"/>
      <point x="1046" y="436"/>
      <point x="1346" y="573"/>
      <point x="1346" y="690" type="qcurve" smooth="yes"/>
      <point x="1346" y="822"/>
      <point x="1060" y="932"/>
      <point x="801" y="932" type="qcurve" smooth="yes"/>
      <point x="537" y="932"/>
      <point x="245" y="815"/>
      <point x="245" y="700" type="qcurve" smooth="yes"/>
      <point x="245" y="690" type="line"/>
      <point x="65" y="690" type="line"/>
      <point x="65" y="700" type="line" smooth="yes"/>
      <point x="65" y="863"/>
      <point x="460" y="1086"/>
      <point x="801" y="1086" type="qcurve" smooth="yes"/>
      <point x="1135" y="1086"/>
      <point x="1530" y="880"/>
      <point x="1530" y="700" type="qcurve" smooth="yes"/>
      <point x="1530" y="600"/>
      <point x="1255" y="415"/>
      <point x="982" y="366" type="qcurve"/>
      <point x="982" y="362" type="line"/>
      <point x="1261" y="336"/>
      <point x="1582" y="159"/>
      <point x="1582" y="1" type="qcurve" smooth="yes"/>
      <point x="1582" y="-200"/>
      <point x="1156" y="-430"/>
      <point x="801" y="-430" type="qcurve" smooth="yes"/>
      <point x="434" y="-430"/>
      <point x="25" y="-200"/>
    </contour>
  </outline>
</glyph>
<glyph name="zero.prop" format="2">
  <advance width="1756"/>
  <outline>
    <contour>
      <point x="110" y="460" type="qcurve" smooth="yes"/>
      <point x="110" y="996" type="line" smooth="yes"/>
      <point x="110" y="1216"/>
      <point x="475" y="1486"/>
      <point x="879" y="1486" type="qcurve" smooth="yes"/>
      <point x="1281" y="1486"/>
      <point x="1646" y="1216"/>
      <point x="1646" y="996" type="qcurve" smooth="yes"/>
      <point x="1646" y="460" type="line" smooth="yes"/>
      <point x="1646" y="220"/>
      <point x="1280" y="-30"/>
      <point x="879" y="-30" type="qcurve" smooth="yes"/>
      <point x="476" y="-30"/>
      <point x="110" y="220"/>
    </contour>
    <contour>
      <point x="304" y="450" type="line" smooth="yes"/>
      <point x="304" y="310"/>
      <point x="554" y="128"/>
      <point x="878" y="128" type="qcurve" smooth="yes"/>
      <point x="1202" y="128"/>
      <point x="1452" y="310"/>
      <point x="1452" y="450" type="qcurve" smooth="yes"/>
      <point x="1452" y="1006" type="line" smooth="yes"/>
      <point x="1452" y="1146"/>
      <point x="1202" y="1328"/>
      <point x="878" y="1328" type="qcurve" smooth="yes"/>
      <point x="554" y="1328"/>
      <point x="304" y="1146"/>
      <point x="304" y="1006" type="qcurve" smooth="yes"/>
    </contour>
  </outline>
</glyph>
<glyph name="zhe.bgr" format="2">
  <advance width="2185"/>
  <outline>
    <contour>
      <point x="-16" y="0" type="line"/>
      <point x="686" y="667" type="line"/>
      <point x="798" y="544" type="line"/>
      <point x="198" y="0" type="line"/>
    </contour>
    <contour>
      <point x="1000" y="0" type="line"/>
      <point x="1000" y="1456" type="line"/>
      <point x="1186" y="1456" type="line"/>
      <point x="1186" y="0" type="line"/>
    </contour>
    <contour>
      <point x="1987" y="0" type="line"/>
      <point x="1387" y="544" type="line"/>
      <point x="1499" y="667" type="line"/>
      <point x="2201" y="0" type="line"/>
    </contour>
    <contour>
      <point x="29" y="1052" type="line"/>
      <point x="240" y="1052" type="line"/>
      <point x="1085" y="469" type="line"/>
      <point x="1085" y="258" type="line"/>
    </contour>
    <contour>
      <point x="2156" y="1052" type="line"/>
      <point x="1100" y="258" type="line"/>
      <point x="1100" y="469" type="line"/>
      <point x="1945" y="1052" type="line"/>
    </contour>
  </outline>
</glyph>
